<?xml version="1.0" encoding="utf-8"?><!-- Uploaded to: SVG Repo, www.svgrepo.com, Generator: SVG Repo Mixer Tools -->
<svg fill="#000000" width="800px" height="800px" viewBox="0 0 24 24" id="alpha-circle" data-name="Flat Color" xmlns="http://www.w3.org/2000/svg" class="icon flat-color"><circle id="primary" cx="12" cy="12" r="10" style="fill: rgb(0, 0, 0);"></circle><path id="secondary" d="M16,16a2.58,2.58,0,0,1-2.31-1.32,4.27,4.27,0,0,1-3,1.32,3.73,3.73,0,0,1-3-1.17,3.08,3.08,0,0,1-.67-2.54C7.37,10.23,9.08,8,11.31,8a3,3,0,0,1,2.89,2.23,11.44,11.44,0,0,0,.4-1.09,1,1,0,0,1,1.25-.67,1,1,0,0,1,.67,1.25A15.39,15.39,0,0,1,15.06,13c.28.76.53,1.05.94,1.05a1,1,0,0,1,0,2Zm-4.69-6C10.23,10,9.22,11.36,9,12.58a1.14,1.14,0,0,0,.2.94A1.92,1.92,0,0,0,10.7,14a3,3,0,0,0,2.16-1.39c0-.09,0-.18-.08-.27C12.29,10.58,12,10,11.31,10Z" style="fill: rgb(44, 169, 188);"></path></svg>